<?xml version="1.0" encoding="utf-8"?>
<!-- Generator: Adobe Illustrator 28.0.0, SVG Export Plug-In . SVG Version: 6.00 Build 0)  -->
<svg version="1.1" xmlns="http://www.w3.org/2000/svg" xmlns:xlink="http://www.w3.org/1999/xlink" x="0px" y="0px"
	 viewBox="0 0 521.24 207.33" style="enable-background:new 0 0 521.24 207.33;" xml:space="preserve">
<style type="text/css">
	.st0{fill:#467085;}
	.st1{fill:#D884B6;}
	.st2{fill:#28B6E3;}
	.st3{fill:#FFFFFF;}
	.st4{fill:#F4DC6C;}
	.st5{fill:none;stroke:#F4DC6C;stroke-miterlimit:10;}
	.st6{display:none;}
	.st7{display:inline;}
	.st8{fill:#9D9D9C;}
	.st9{display:inline;fill:#28B6E3;}
	.st10{display:inline;fill:#F4DC6C;}
	.st11{display:inline;fill:#D884B6;}
	.st12{fill:#254D66;}
	.st13{fill:none;stroke:#000000;stroke-width:19;stroke-linecap:round;stroke-linejoin:round;stroke-miterlimit:10;}
	.st14{display:inline;fill:#FFFFFF;}
	.st15{display:inline;fill:none;stroke:#467085;stroke-width:11;stroke-linecap:round;stroke-linejoin:round;stroke-miterlimit:10;}
	.st16{display:inline;fill:#467085;}
	.st17{display:inline;fill:url(#SVGID_1_);}
	.st18{fill:url(#SVGID_00000106123252595976814590000010350499290144945338_);}
	.st19{display:inline;fill:url(#SVGID_00000097470355215737069460000009540079401034005930_);}
	.st20{display:inline;fill:url(#SVGID_00000176028295973739794710000004763521560260923298_);}
	.st21{fill:url(#SVGID_00000091017581707208527340000015746198129070923917_);}
	.st22{display:inline;fill:url(#SVGID_00000100360470321361080340000007246211331176846516_);}
	.st23{display:inline;fill:url(#SVGID_00000018940360878636564410000004388547982821633983_);}
	.st24{fill:url(#SVGID_00000143619588395374575930000004818018535025958272_);}
	.st25{display:inline;fill:url(#SVGID_00000096057726099328098900000004169255659035661719_);}
	.st26{fill:url(#SVGID_00000150798258989562128210000007546581887275287452_);}
	.st27{fill:url(#SVGID_00000040569613860061076110000007552868114910130364_);}
	.st28{fill:url(#SVGID_00000009555528185174297610000009454412868378316963_);}
	.st29{fill:#305A6A;}
	.st30{fill:url(#SVGID_00000005268897681603924120000009417818007053738637_);}
	.st31{fill:url(#SVGID_00000113346450811880449650000004348422838475055505_);}
	.st32{fill:url(#SVGID_00000072279294070123594520000017779784142794885305_);}
	.st33{fill:url(#SVGID_00000108293624207671083840000000571435473988392103_);}
	.st34{fill:url(#SVGID_00000055705452348510829430000009141036818978956451_);}
	.st35{fill:url(#SVGID_00000049184859377993870850000001488049241626069889_);}
	.st36{display:inline;fill:#305A6A;}
	.st37{display:inline;fill:none;stroke:#305A6A;stroke-width:0.5;stroke-miterlimit:10;}
</style>
<g id="Layer_1">
	<g>
		<polygon class="st1" points="382.33,81.64 404.54,111.11 426.81,81.64 		"/>
		<path class="st1" d="M458.91,50.27l-18.63,24.66h45.79l13.22-17.55c2.74-3.63,0.15-8.82-4.4-8.82h-32.05
			C461.35,48.56,459.94,49.2,458.91,50.27z"/>
		<polygon class="st1" points="436.57,81.64 458.82,111.09 481.02,81.64 		"/>
		<path class="st2" d="M431.69,86.31l-12.89,17.06l-10.05,13.33l-44.7,59.31c-2.74,3.63-0.15,8.82,4.4,8.82h32.05
			c1.73,0,3.36-0.81,4.4-2.19l26.78-35.53l26.78,35.53c1.04,1.38,2.67,2.19,4.4,2.19h32.05c4.55,0,7.14-5.19,4.4-8.82L431.69,86.31z
			"/>
		<path class="st1" d="M377.27,74.93h45.82l-18.51-24.51c-1.04-1.16-2.51-1.86-4.09-1.86h-32.05c-4.55,0-7.14,5.19-4.4,8.82
			L377.27,74.93z"/>
		<path class="st0" d="M25.1,156.92c2.32-5.66,8.76-8.37,14.43-6.06c6.59,2.68,16.77,5.72,29.04,5.72c10.25,0,20.5-3.25,20.5-12.25
			c0-7.25-7.25-10.75-19-14.25l-15.25-4.75c-26.99-7.75-33.99-21.25-33.99-37.24c0-27.49,22.24-43.24,57.24-43.24
			c37.74,0,47.99,9.25,48.49,16.5c0.5,3.64-1.14,9.05-3.25,13.76c-2.41,5.38-8.69,7.77-14.17,5.61c-6.19-2.44-15.42-5.12-26.07-5.12
			c-7.75,0-18.75,1.5-18.75,11.25c0,6,4.25,9.25,14.25,12l16.75,4.75c27.99,7.5,38.24,20.25,38.24,38.99
			c0,28-24.25,44.74-62.24,44.74c-37.99,0-48.24-10-48.49-19.5C22.73,164.05,23.74,160.24,25.1,156.92z"/>
		<path class="st0" d="M154.8,79.09h-11c-5,0-7.25-1.5-7-6.25c0.25-4.75-0.75-10.75-0.5-15.5c0.25-2.5,1.25-5.5,7-7
			c20-2.75,22.75-15.25,23.75-22.5c1.25-5,3-7.5,8.75-7.5c7.75,0,23-3,22.5,8.75c-0.25,5.5-0.25,13.25-0.25,18.25
			c6,0.25,19,0.25,27.49,0c6-0.25,7.75,2.5,7.75,6c0,5-0.25,12.5-0.25,19.5c0,3.75-1,6-6,6c-9-0.25-26.49,0-29.49,0
			c-0.5,20.25-1,48.49-0.75,63.74c0.25,10.5,3.5,13,10.75,13c5,0,10-1.25,14.25-2c4.5-0.75,8,2,8.5,6l1,10.25
			c0.5,5-0.5,8.25-4.5,10.75c-8,4.75-23.75,6.75-34.74,6.75c-28.24,0-38.24-14.75-38.24-40.49
			C153.8,132.83,155.05,88.09,154.8,79.09z"/>
		<path class="st0" d="M285.78,103.34c12,0.25,24.25,3.5,29.24,5.25v-9.5c0-12.5-8.75-19-24.24-19c-9.55,0-18.77,1.93-25.45,3.8
			c-6.96,1.95-14.25-2.02-16.23-8.97c-1.79-6.3-2-13.77,3.69-19.33c6.75-6.25,21.75-10.75,43.49-10.75
			c37.24,0,58.99,20.75,59.99,50.74c0.75,19.75-1,53.99-0.5,67.74c0.25,11.75,7.5,24-18.75,24c-13.25,0-20.75-7-18.25-26.25h-1.5
			c0,0-8.5,26.25-39.24,26.25c-25.75,0-41.49-17.75-42.49-40.74C234.29,118.33,256.28,102.59,285.78,103.34z M290.28,157.33
			c14,0,22.75-11.5,24.74-20v-11c-2.5-1-10-2.5-18-2.5c-13.5,0-24.25,6.5-24.25,17.75C273.03,151.33,280.03,157.33,290.28,157.33z"
			/>
	</g>
</g>
<g id="Layer_2" class="st6">
</g>
</svg>
